<?xml version="1.0" standalone="no"?>
<!DOCTYPE svg PUBLIC "-//W3C//DTD SVG 20010904//EN"
 "http://www.w3.org/TR/2001/REC-SVG-20010904/DTD/svg10.dtd">
<svg version="1.0" xmlns="http://www.w3.org/2000/svg"
 width="620.000000pt" height="400.000000pt" viewBox="0 0 620.000000 400.000000"
 preserveAspectRatio="xMidYMid meet">

<g transform="translate(0.000000,400.000000) scale(0.100000,-0.100000)"
fill="#000000" stroke="none">
<path d="M3498 3293 c-37 -14 -65 -29 -62 -34 3 -5 -1 -6 -9 -3 -7 2 -26 0
-42 -6 l-29 -11 40 -24 c21 -13 45 -25 51 -25 16 0 163 67 163 75 0 3 -10 0
-22 -6 -12 -6 -46 -13 -75 -15 l-54 -3 26 25 c14 13 32 24 39 24 7 0 21 7 32
15 24 18 23 18 -58 -12z m12 -63 c-8 -5 -24 -9 -35 -9 -16 1 -16 2 5 9 35 11
48 11 30 0z"/>
<path d="M3037 3199 c7 -7 15 -10 18 -7 3 3 -2 9 -12 12 -14 6 -15 5 -6 -5z"/>
<path d="M2815 3169 c-4 -6 2 -13 14 -16 12 -3 21 -9 21 -14 0 -5 -18 0 -40
11 -48 24 -132 27 -150 5 -7 -8 -16 -15 -21 -15 -16 0 -51 -42 -60 -72 -4 -16
-11 -68 -15 -114 -5 -59 -11 -84 -20 -84 -7 0 -16 5 -19 10 -12 19 -198 5
-194 -15 2 -10 -7 -15 -61 -38 -88 -36 -100 -42 -104 -54 -3 -7 -10 -79 -16
-160 -10 -136 -10 -149 6 -158 9 -5 40 -28 68 -51 28 -22 66 -50 84 -63 29
-20 43 -43 25 -40 -36 6 -39 0 -38 -97 0 -79 3 -98 18 -109 24 -17 21 -24 -9
-22 -15 1 -29 -4 -31 -10 -3 -7 0 -13 7 -13 6 0 8 5 5 10 -3 6 1 10 9 10 9 0
16 -4 16 -9 0 -16 -177 -171 -195 -171 -9 0 -50 10 -91 22 l-75 21 6 151 c4
83 8 156 10 162 2 6 24 14 50 17 25 4 78 14 117 24 56 13 67 19 55 28 -22 16
-31 82 -12 92 11 7 8 12 -15 28 -16 11 -33 29 -39 42 -6 12 -22 25 -35 29 -31
7 -276 -16 -276 -26 0 -4 12 -15 26 -25 36 -23 64 -48 64 -56 0 -4 -13 -10
-30 -14 -30 -7 -30 -7 -28 -71 1 -36 5 -67 10 -70 4 -3 7 -24 6 -47 l-1 -42
-7 45 c-5 35 -7 22 -8 -57 -1 -61 -6 -103 -12 -103 -5 0 -10 -5 -10 -11 0 -13
38 -49 52 -49 4 0 8 -4 8 -9 0 -10 -76 6 -230 48 -58 17 -124 35 -148 41 l-43
11 3 137 3 136 113 17 c97 15 172 34 172 45 0 1 -11 15 -25 30 -32 34 -31 37
4 51 21 8 32 8 40 0 8 -8 11 -8 11 0 0 6 -19 26 -42 44 -24 18 -35 24 -26 13
14 -16 15 -23 6 -32 -8 -8 -9 -12 -1 -12 6 0 14 5 16 10 3 6 4 5 3 -2 -4 -20
-55 -17 -62 4 -3 10 -16 21 -30 24 -13 3 -24 10 -24 14 0 4 -16 11 -35 14 -38
7 -46 21 -17 30 26 8 -233 -4 -264 -13 l-27 -7 29 -19 c76 -50 74 -41 78 -252
2 -105 2 -193 0 -196 -6 -6 -125 21 -147 34 -32 18 -31 2 4 -43 18 -24 33 -44
34 -45 1 -2 136 -39 301 -84 164 -45 371 -101 458 -125 l159 -44 31 24 c17 13
81 68 141 121 61 54 124 110 140 124 17 14 66 58 110 96 44 39 93 82 110 96
104 91 245 218 275 247 40 39 10 28 -34 -13 -30 -28 -49 -27 -24 2 10 11 15
31 13 48 -3 23 3 36 23 53 18 15 20 20 7 13 -11 -5 -51 -37 -90 -70 -38 -34
-75 -61 -81 -61 -7 0 -7 27 2 88 22 155 53 405 60 484 5 60 10 78 25 85 14 6
16 12 9 23 -9 13 -11 13 -20 0 -8 -13 -10 -12 -10 3 0 12 -8 17 -29 17 -17 0
-33 -5 -36 -11z m-209 -361 c-10 -5 -20 -7 -23 -4 -4 3 -1 6 7 6 10 0 10 3 -1
17 -13 15 -12 15 10 3 22 -11 23 -13 7 -22z m172 -87 c2 -6 -5 -11 -17 -11
-22 0 -36 -15 -22 -24 12 -7 2 -46 -11 -46 -6 0 -7 -11 -3 -27 4 -16 8 -34 8
-40 0 -7 6 -13 14 -13 16 0 16 -13 0 -68 -7 -23 -16 -40 -20 -36 -4 4 -7 -6
-7 -22 0 -24 -14 -42 -72 -95 -243 -220 -277 -246 -264 -201 3 9 10 71 16 137
14 167 30 322 36 372 5 39 8 43 40 48 19 3 50 8 70 11 52 8 72 23 66 49 -5 27
16 44 29 24 5 -8 9 -9 9 -3 0 5 -6 16 -12 23 -7 7 21 -5 62 -27 41 -21 76 -44
78 -51z m162 -171 c-13 -9 -13 -11 -1 -19 12 -8 12 -12 -2 -26 -9 -9 -21 -13
-27 -10 -17 10 -11 25 7 18 13 -5 15 -2 10 11 -8 21 -1 36 16 36 7 0 6 -4 -3
-10z m-64 -69 c-7 -11 22 -36 31 -27 4 4 1 11 -7 16 -8 5 -11 12 -8 16 4 3 14
0 22 -9 13 -13 13 -17 -4 -32 -18 -16 -20 -16 -26 -1 -3 9 -12 16 -20 16 -15
0 -19 12 -7 23 10 10 25 8 19 -2z m-986 -161 c0 -5 -8 -10 -17 -10 -15 0 -16
2 -3 10 19 12 20 12 20 0z m-33 -277 c-3 -10 -5 -4 -5 12 0 17 2 24 5 18 2 -7
2 -21 0 -30z"/>
<path d="M2720 2521 c0 -6 4 -13 10 -16 6 -3 7 1 4 9 -7 18 -14 21 -14 7z"/>
<path d="M3185 3120 c4 -6 2 -16 -3 -23 -5 -7 -12 -43 -15 -82 -3 -38 -9 -86
-12 -105 -4 -26 -3 -30 4 -15 8 20 41 194 41 222 0 7 -5 13 -11 13 -5 0 -7 -5
-4 -10z"/>
<path d="M3672 2947 c-6 -7 -7 -19 -3 -26 6 -9 10 -6 14 10 8 28 3 34 -11 16z"/>
<path d="M3608 2893 c-25 -28 -56 -142 -44 -162 3 -5 23 -19 43 -30 l38 -22
-33 28 c-24 21 -32 36 -32 60 0 17 5 35 10 38 6 4 8 15 5 24 -5 16 24 65 50
83 7 5 7 8 -1 8 -5 0 -22 -12 -36 -27z"/>
<path d="M3665 2879 c-4 -6 -5 -12 -2 -15 2 -3 7 2 10 11 7 17 1 20 -8 4z"/>
<path d="M3140 2860 c0 -5 5 -10 10 -10 6 0 10 5 10 10 0 6 -4 10 -10 10 -5 0
-10 -4 -10 -10z"/>
<path d="M3137 2827 c-4 -10 -7 -28 -7 -40 1 -20 2 -20 11 -4 6 10 9 28 7 40
-3 20 -4 20 -11 4z"/>
<path d="M1200 2647 c0 -2 15 -16 33 -33 l32 -29 -29 33 c-28 30 -36 37 -36
29z"/>
<path d="M864 2589 c-3 -5 -23 -9 -44 -9 -21 0 -40 -5 -42 -11 -3 -9 -9 -9
-25 -1 -33 18 -80 4 -87 -25 -4 -13 -4 -27 -2 -32 3 -4 6 -52 7 -106 l3 -100
58 -71 58 -72 7 -136 c4 -83 10 -136 16 -136 6 0 26 10 44 23 39 26 39 17 18
307 -8 112 -11 208 -7 211 4 4 70 14 147 23 77 9 150 19 163 21 35 8 26 25
-15 25 -34 0 -35 1 -18 14 18 13 18 14 -2 20 -11 4 -23 16 -26 27 -3 12 -10
18 -15 15 -5 -3 -24 -1 -43 4 -48 13 -189 19 -195 9z"/>
<path d="M5830 2560 c-15 -15 -20 -33 -20 -75 0 -59 22 -95 58 -95 45 0 77 62
35 68 -18 3 -23 -2 -23 -18 0 -12 -4 -18 -10 -15 -5 3 -10 33 -10 66 0 33 4
59 10 59 6 0 10 -9 10 -20 0 -13 7 -20 19 -20 28 0 34 27 11 50 -25 25 -55 25
-80 0z"/>
<path d="M5940 2565 c0 -8 5 -15 10 -15 6 0 10 -32 10 -75 0 -73 1 -75 25 -75
24 0 25 2 25 75 0 43 4 75 10 75 6 0 10 7 10 15 0 11 -12 15 -45 15 -33 0 -45
-4 -45 -15z"/>
<path d="M5680 2496 c0 -98 4 -106 51 -106 49 0 59 18 59 109 0 69 -1 71 -25
71 -24 0 -25 -2 -25 -75 0 -43 -4 -75 -10 -75 -6 0 -10 32 -10 75 0 68 -2 75
-20 75 -18 0 -20 -7 -20 -74z"/>
<path d="M5425 2546 c-13 -10 -20 -30 -23 -74 -4 -52 -1 -63 18 -82 25 -25 66
-21 88 7 17 24 15 114 -4 141 -17 25 -51 29 -79 8z m45 -75 c0 -33 -4 -63 -10
-66 -6 -4 -10 18 -10 59 0 37 4 66 10 66 6 0 10 -26 10 -59z"/>
<path d="M5540 2471 l0 -91 38 0 c64 0 73 14 70 100 l-3 75 -52 3 -53 3 0 -90z
m70 5 c0 -48 -9 -74 -21 -62 -8 8 3 116 12 116 5 0 9 -24 9 -54z"/>
<path d="M5148 2543 c-16 -4 -18 -17 -18 -94 0 -81 2 -89 19 -89 16 0 20 8 23
37 2 29 8 39 23 41 33 6 45 22 45 58 0 46 -33 63 -92 47z m52 -53 c0 -11 -7
-20 -15 -20 -8 0 -15 9 -15 20 0 11 7 20 15 20 8 0 15 -9 15 -20z"/>
<path d="M5267 2543 c-4 -3 -7 -44 -7 -90 0 -82 0 -83 25 -83 23 0 25 4 26 43
l1 42 12 -40 c9 -29 19 -41 36 -43 20 -3 22 -1 15 25 -10 32 -9 57 0 96 10 39
-9 57 -60 57 -23 0 -45 -3 -48 -7z m71 -45 c-5 -32 -28 -35 -28 -4 0 17 5 26
16 26 10 0 14 -7 12 -22z"/>
<path d="M4955 2526 c-29 -21 -32 -129 -4 -157 24 -24 54 -24 79 1 28 28 26
50 -5 50 -19 0 -25 -5 -25 -21 0 -11 -4 -17 -10 -14 -12 8 -13 112 -1 119 5 3
11 -3 14 -14 5 -21 31 -27 42 -10 4 6 -1 22 -9 35 -18 28 -52 32 -81 11z"/>
<path d="M4754 2518 c-4 -6 0 -16 9 -23 13 -9 17 -29 17 -84 0 -64 2 -72 18
-69 14 3 18 16 20 76 2 53 7 75 17 79 8 3 15 11 15 19 0 18 -85 20 -96 2z"/>
<path d="M4870 2440 c0 -83 1 -90 20 -90 19 0 20 7 20 90 0 83 -1 90 -20 90
-19 0 -20 -7 -20 -90z"/>
<path d="M4540 2425 c0 -94 0 -95 24 -95 13 0 31 3 40 6 22 8 20 32 -1 30 -23
-1 -31 42 -9 50 20 8 21 34 1 34 -8 0 -15 9 -15 20 0 13 7 20 20 20 11 0 20 7
20 15 0 11 -11 15 -40 15 l-40 0 0 -95z"/>
<path d="M4652 2508 c-21 -21 -13 -56 19 -86 19 -18 29 -34 24 -41 -5 -9 -11
-7 -20 6 -11 15 -16 16 -27 5 -30 -30 43 -70 78 -41 23 19 16 56 -17 94 -18
20 -29 39 -25 43 4 3 11 0 16 -7 4 -8 15 -11 24 -8 14 5 15 11 6 27 -12 23
-59 27 -78 8z"/>
<path d="M4262 2494 c-19 -13 -22 -24 -22 -83 0 -74 10 -91 51 -91 45 0 59 23
59 95 0 55 -3 66 -22 79 -12 9 -27 16 -33 16 -6 0 -21 -7 -33 -16z m38 -85 c0
-37 -4 -58 -10 -54 -5 3 -10 31 -10 61 0 30 5 54 10 54 6 0 10 -27 10 -61z"/>
<path d="M4378 2421 c-3 -81 -1 -91 15 -91 13 0 17 9 18 43 1 23 3 33 6 22 2
-11 6 -30 9 -42 8 -39 30 -26 41 25 l10 47 2 -47 c1 -35 5 -48 16 -48 12 0 15
17 15 90 0 88 0 90 -24 90 -19 0 -26 -7 -33 -37 l-10 -38 -10 35 c-6 24 -16
36 -30 38 -20 3 -22 -2 -25 -87z"/>
<path d="M4107 2493 c-4 -3 -7 -46 -7 -95 l0 -88 30 0 c16 0 41 5 55 12 23 10
25 16 25 84 0 62 -3 75 -19 84 -22 11 -74 14 -84 3z m63 -89 c0 -30 -4 -54
-10 -54 -6 0 -10 27 -10 61 0 37 4 58 10 54 6 -3 10 -31 10 -61z"/>
<path d="M3938 2479 c-28 -16 -22 -59 14 -96 17 -18 29 -36 25 -40 -4 -3 -13
1 -20 10 -16 22 -41 7 -33 -21 14 -43 88 -28 94 18 2 18 -7 34 -28 55 -38 36
-38 46 0 39 33 -7 35 -3 20 27 -12 21 -45 24 -72 8z"/>
<path d="M3685 2466 c-28 -20 -28 -141 -1 -162 27 -19 52 -18 76 6 26 26 29
130 4 154 -19 20 -54 21 -79 2z m45 -76 c0 -33 -4 -60 -10 -60 -6 0 -10 27
-10 60 0 33 4 60 10 60 6 0 10 -27 10 -60z"/>
<path d="M3812 2468 c-20 -20 -13 -53 18 -83 17 -16 30 -35 30 -42 0 -18 -10
-16 -26 5 -10 14 -15 15 -26 4 -30 -30 43 -70 78 -41 24 20 16 61 -18 96 -17
18 -28 36 -23 40 4 5 10 2 12 -4 5 -15 43 -18 43 -4 0 5 -3 16 -6 25 -7 19
-64 22 -82 4z"/>
<path d="M3413 2455 c-20 -14 -23 -25 -23 -84 0 -80 9 -92 66 -87 39 4 39 4
42 50 3 44 2 46 -23 46 -24 0 -26 -2 -19 -36 5 -29 4 -36 -7 -32 -9 3 -15 24
-17 61 -2 46 0 57 13 57 8 0 15 -7 15 -16 0 -20 34 -14 37 6 7 38 -48 61 -84
35z"/>
<path d="M3527 2463 c-4 -3 -7 -44 -7 -90 0 -82 0 -83 25 -83 23 0 25 4 25 42
0 47 9 45 19 -4 5 -24 13 -34 29 -36 25 -4 26 0 12 48 -6 22 -6 38 0 44 14 14
13 59 -2 74 -13 13 -90 17 -101 5z m71 -45 c-5 -32 -28 -35 -28 -4 0 17 5 26
16 26 10 0 14 -7 12 -22z"/>
<path d="M579 2405 c5 -11 19 -29 30 -39 12 -11 21 -26 21 -34 0 -12 -4 -12
-20 3 -11 10 -20 24 -20 32 0 7 -4 13 -10 13 -17 0 -11 -13 24 -52 18 -21 36
-35 39 -31 16 15 4 43 -34 84 -22 24 -36 35 -30 24z"/>
<path d="M121 2379 c-47 -5 -86 -11 -88 -13 -3 -2 12 -107 31 -232 20 -126 39
-256 42 -289 4 -34 16 -78 29 -100 15 -26 28 -77 38 -145 9 -58 15 -105 14
-106 -1 -1 -44 -29 -94 -63 l-93 -62 0 -149 c0 -83 2 -150 5 -150 3 0 17 7 30
16 15 10 32 13 46 9 20 -7 20 -8 6 -17 -26 -14 -21 -37 8 -33 20 2 23 0 14
-11 -6 -8 -18 -14 -25 -14 -8 0 -14 -7 -14 -16 0 -8 -4 -12 -10 -9 -5 3 -10 1
-10 -4 0 -6 5 -11 10 -11 6 0 8 -10 4 -24 -3 -13 -1 -27 5 -30 18 -12 14 -143
-6 -172 -11 -17 -13 -28 -6 -32 13 -9 15 -642 2 -642 -5 0 -9 -18 -9 -40 l0
-40 263 1 c238 1 258 2 222 15 -47 17 -51 23 -53 77 -1 23 -6 62 -12 87 -6 25
-21 126 -35 225 -13 99 -47 335 -75 524 -27 190 -50 346 -50 347 0 1 42 28 93
60 50 32 113 73 139 91 26 18 52 33 57 33 5 0 18 10 28 23 10 12 39 33 64 46
56 29 84 49 78 56 -6 6 -75 -28 -98 -48 -9 -8 -26 -18 -38 -21 -13 -4 -30 -14
-39 -23 -12 -12 -20 -13 -37 -5 -12 6 -16 11 -9 11 6 1 12 7 12 15 0 8 9 18
20 21 29 9 24 30 -12 54 -32 20 -32 21 -11 27 20 5 20 8 8 21 -8 8 -15 19 -15
25 0 6 3 8 6 5 4 -4 20 3 36 14 16 12 27 24 24 27 -3 2 -11 0 -18 -5 -7 -6
-26 -13 -43 -17 -28 -6 -29 -5 -11 8 10 9 24 17 30 19 6 2 8 7 4 11 -3 4 -74
-35 -156 -88 l-151 -95 -5 27 c-5 27 -66 461 -69 496 -2 17 17 22 200 50 180
28 256 46 195 46 -12 0 -22 2 -22 5 0 13 26 61 37 68 18 11 16 34 -4 49 -10 7
-24 21 -32 31 -12 15 -12 17 4 11 15 -6 15 -4 4 13 -7 12 -18 20 -25 19 -7 -1
-60 4 -116 12 -143 19 -219 22 -317 11z m362 -764 c-3 -9 -8 -14 -10 -11 -3 3
-2 9 2 15 9 16 15 13 8 -4z m-294 -442 c-1 -15 -102 -74 -111 -65 -5 5 9 17
32 27 22 10 45 24 51 32 12 14 29 18 28 6z m-39 -73 c0 -5 -2 -10 -4 -10 -3 0
-8 5 -11 10 -3 6 -1 10 4 10 6 0 11 -4 11 -10z m-63 -922 c-2 -13 -4 -3 -4 22
0 25 2 35 4 23 2 -13 2 -33 0 -45z"/>
<path d="M5960 2359 c-74 -4 -196 -10 -270 -13 -128 -6 -927 -46 -1330 -66
-102 -5 -333 -16 -515 -25 -181 -8 -363 -18 -402 -21 l-73 -6 0 -644 0 -644
1138 0 1138 0 144 438 c353 1072 328 994 313 990 -5 0 -69 -4 -143 -9z m-1998
-307 c92 -42 141 -122 142 -232 l1 -65 -84 0 -84 0 -12 57 c-14 69 -43 104
-94 113 -69 11 -124 -26 -138 -94 -5 -20 -8 -137 -8 -261 0 -189 3 -230 17
-255 24 -45 52 -66 97 -72 36 -5 44 -2 74 28 35 35 57 102 57 174 l0 35 -60 0
-61 0 3 71 3 70 138 0 c75 0 142 -1 147 -1 16 0 13 -497 -2 -503 -7 -2 -38 -4
-68 -3 l-55 1 -5 40 -5 39 -17 -26 c-39 -60 -121 -86 -220 -68 -117 22 -169
65 -205 170 -16 48 -18 89 -18 310 0 214 3 264 17 311 30 97 91 154 189 180
56 14 203 3 251 -19z m729 -3 c40 -9 62 -22 99 -58 70 -67 81 -112 87 -346 6
-219 -8 -322 -54 -407 -60 -111 -120 -131 -376 -126 l-162 3 -3 473 -2 472
179 0 c99 0 203 -5 232 -11z m752 2 c103 -24 157 -103 165 -237 12 -209 -73
-299 -294 -311 l-104 -6 -2 -191 -3 -191 -65 -2 c-36 -1 -75 0 -87 3 l-23 4 0
464 c0 254 3 466 7 469 10 10 362 8 406 -2z"/>
<path d="M4460 1585 l0 -325 59 0 c150 0 171 41 171 325 0 283 -20 325 -156
325 l-74 0 0 -325z"/>
<path d="M5214 1897 c-2 -7 -3 -65 -2 -128 l3 -114 50 -3 c70 -5 122 13 139
46 37 74 25 172 -24 197 -37 19 -158 21 -166 2z"/>
<path d="M2728 2133 c-23 -26 -28 -45 -52 -243 -37 -292 -64 -488 -81 -590
-18 -108 -57 -402 -53 -405 4 -5 162 -67 173 -69 6 -1 16 -5 22 -9 7 -5 20 -4
30 1 17 10 2 19 -120 68 l-48 19 6 40 c3 22 17 126 31 230 13 105 33 258 44
340 11 83 33 256 50 385 17 129 33 241 35 248 7 20 -10 14 -37 -15z"/>
<path d="M4 1965 c4 -16 12 -34 17 -39 5 -6 5 4 -1 24 -12 42 -25 55 -16 15z"/>
<path d="M40 1897 c0 -14 24 -57 32 -57 5 0 1 12 -9 28 -22 35 -23 36 -23 29z"/>
<path d="M1389 1849 c0 -8 0 -84 1 -169 1 -105 -2 -152 -9 -145 -6 6 -12 48
-14 95 l-3 85 -2 -96 c-2 -109 0 -106 -85 -115 -56 -6 -90 -29 -66 -45 12 -7
12 -9 -1 -9 -13 0 -13 -2 -1 -9 12 -8 12 -26 2 -117 -6 -60 -16 -291 -21 -513
-6 -318 -11 -406 -22 -412 -10 -7 -10 -9 2 -9 11 -1 10 -4 -5 -16 -19 -16 -19
-16 12 -12 18 2 30 1 27 -4 -3 -4 -13 -8 -24 -8 -10 0 -20 -7 -24 -15 -3 -8
-4 -15 -3 -15 1 0 52 20 112 45 61 25 120 45 132 45 13 0 91 -28 175 -61 137
-55 213 -84 273 -104 11 -3 0 5 -25 19 -50 28 -40 34 17 11 19 -8 41 -15 47
-15 14 0 -76 43 -169 80 -157 63 -240 100 -242 107 -1 4 -4 320 -6 701 -3 381
-7 695 -9 698 -3 2 -19 7 -36 10 -23 5 -32 3 -33 -7z"/>
<path d="M2324 1781 c-37 -34 -43 -56 -49 -177 -2 -49 -9 -123 -14 -164 -6
-41 -11 -83 -11 -94 0 -16 -6 -18 -41 -13 -41 5 -41 5 -37 -24 3 -16 1 -29 -4
-29 -4 0 -8 -12 -8 -27 0 -19 3 -24 9 -15 15 24 19 -8 10 -78 -4 -36 -6 -67
-3 -69 2 -2 4 1 4 7 0 7 3 12 8 12 4 0 6 -19 3 -42 -2 -24 -6 -37 -8 -30 -3 6
-9 12 -14 12 -12 0 -12 -77 1 -85 6 -3 9 -30 8 -58 l-1 -52 -7 55 -7 55 -1
-67 c-1 -37 3 -70 8 -73 16 -10 12 -25 -7 -25 -21 0 -6 -16 22 -23 18 -4 18
-5 -2 -6 -13 0 -23 -5 -23 -10 0 -5 -8 -12 -17 -15 -10 -3 -1 -3 19 0 30 4 70
-8 198 -59 88 -36 163 -61 166 -56 3 5 10 7 15 3 5 -3 7 -10 4 -15 -7 -11 5
-12 23 -1 8 6 -5 16 -40 32 -29 13 -82 37 -118 53 -36 16 -84 38 -108 48 -36
16 -42 22 -38 41 6 26 24 213 61 643 14 160 28 309 31 333 2 23 3 42 2 42 -2
0 -17 -13 -34 -29z m-124 -948 c0 -20 -3 -24 -11 -16 -7 7 -9 19 -6 27 10 24
17 19 17 -11z"/>
<path d="M1362 1780 c0 -14 2 -19 5 -12 2 6 2 18 0 25 -3 6 -5 1 -5 -13z"/>
<path d="M1838 1721 c-14 -17 -15 -30 -7 -86 7 -53 6 -72 -6 -95 -9 -17 -11
-31 -5 -35 5 -3 7 -12 4 -19 -3 -8 0 -17 6 -21 21 -13 -11 -25 -69 -25 l-54 0
5 -152 c3 -84 2 -180 -3 -213 -4 -33 -9 -157 -11 -275 -3 -205 -2 -215 16
-212 11 2 15 -1 11 -7 -3 -6 -13 -11 -21 -11 -9 0 -23 -8 -32 -17 -13 -13 -14
-16 -2 -12 8 3 45 16 81 29 l67 23 143 -58 c79 -31 167 -66 194 -76 l50 -19
-24 20 c-28 24 -22 25 26 5 19 -8 38 -15 42 -15 15 1 -34 24 -193 92 l-169 72
7 111 c8 127 22 449 31 675 3 85 8 192 11 237 6 83 6 83 -21 93 -39 15 -59 12
-77 -9z m21 -230 c1 -35 -5 -22 -12 24 -5 28 -4 34 3 20 5 -11 9 -31 9 -44z
m-134 -871 c-3 -5 -10 -10 -16 -10 -5 0 -9 5 -9 10 0 6 7 10 16 10 8 0 12 -4
9 -10z"/>
<path d="M956 1715 c-11 -8 -15 -15 -9 -15 6 0 16 7 23 15 16 19 11 19 -14 0z"/>
<path d="M868 1647 c-37 -22 -38 -23 -38 -84 0 -58 -2 -63 -22 -63 -51 1 -127
-17 -157 -37 -31 -19 -32 -20 -11 -26 12 -3 19 -3 16 0 -8 8 25 32 44 32 10 1
7 -6 -10 -19 -15 -12 -18 -18 -7 -14 14 5 17 0 17 -35 0 -34 -3 -41 -17 -39
-17 3 -18 -25 -21 -442 -1 -245 -5 -452 -8 -460 -5 -12 -8 -11 -14 5 -5 12 -9
-47 -9 -142 -1 -145 1 -162 17 -167 9 -3 -1 -3 -23 -1 -22 2 -33 2 -25 -2 8
-3 18 -10 21 -15 3 -5 17 -4 33 2 15 5 33 10 39 9 7 0 -13 -9 -43 -21 -57 -21
-84 -38 -62 -38 11 0 139 49 304 118 37 14 40 14 125 -21 137 -57 440 -167
455 -166 7 1 2 4 -11 8 -32 9 -41 31 -9 24 13 -3 29 -10 36 -16 7 -5 15 -7 18
-4 7 6 -41 33 -95 52 -20 7 -65 26 -101 43 -36 16 -119 51 -186 77 -105 41
-121 50 -119 69 1 11 -1 71 -5 131 -4 61 -11 157 -14 215 -3 58 -11 168 -16
245 -5 77 -19 280 -31 450 -11 171 -24 320 -27 332 l-7 21 -37 -21z"/>
<path d="M633 1623 c-20 -8 -15 -23 7 -23 11 0 20 7 20 15 0 15 -6 17 -27 8z"/>
<path d="M2880 1329 c0 -5 5 -7 10 -4 6 3 10 8 10 11 0 2 -4 4 -10 4 -5 0 -10
-5 -10 -11z"/>
<path d="M2881 1284 c0 -11 3 -14 6 -6 3 7 2 16 -1 19 -3 4 -6 -2 -5 -13z"/>
<path d="M2566 1277 c3 -10 9 -15 12 -12 3 3 0 11 -7 18 -10 9 -11 8 -5 -6z"/>
<path d="M2867 1211 c-4 -17 -3 -21 5 -13 5 5 8 16 6 23 -3 8 -7 3 -11 -10z"/>
<path d="M2851 1104 c0 -11 3 -14 6 -6 3 7 2 16 -1 19 -3 4 -6 -2 -5 -13z"/>
<path d="M2841 1064 c0 -11 3 -14 6 -6 3 7 2 16 -1 19 -3 4 -6 -2 -5 -13z"/>
<path d="M2781 811 c-11 -7 -11 -9 0 -13 8 -3 22 -3 32 0 15 4 16 7 5 13 -16
11 -20 11 -37 0z"/>
<path d="M2855 789 c4 -6 -4 -8 -22 -4 -26 5 -26 5 -5 -5 14 -6 30 -6 39 -1
13 7 13 9 -1 14 -11 4 -15 3 -11 -4z"/>
<path d="M2270 440 c8 -5 20 -10 25 -10 6 0 3 5 -5 10 -8 5 -19 10 -25 10 -5
0 -3 -5 5 -10z"/>
<path d="M1908 243 c7 -3 16 -2 19 1 4 3 -2 6 -13 5 -11 0 -14 -3 -6 -6z"/>
<path d="M4657 163 c-10 -19 -8 -113 2 -113 6 0 12 15 12 33 1 17 2 44 3 60 2
25 -8 36 -17 20z"/>
<path d="M5193 110 c0 -36 2 -50 4 -32 2 17 2 47 0 65 -2 17 -4 3 -4 -33z"/>
<path d="M4600 149 c0 -5 5 -7 10 -4 6 3 10 8 10 11 0 2 -4 4 -10 4 -5 0 -10
-5 -10 -11z"/>
<path d="M4741 131 c-14 -9 -23 -81 -10 -81 4 0 9 17 11 38 4 52 31 50 39 -3
l7 -40 -2 45 c-1 46 -16 60 -45 41z"/>
<path d="M4820 125 c-8 -10 -9 -15 -1 -15 6 0 11 5 11 10 0 13 27 13 35 0 4
-6 -7 -15 -24 -21 -46 -16 -43 -49 5 -49 l35 0 -3 43 c-2 34 -7 43 -24 45 -11
2 -27 -4 -34 -13z m44 -50 c-6 -16 -44 -21 -44 -7 0 14 12 22 31 22 12 0 16
-5 13 -15z"/>
<path d="M4914 132 c-13 -8 -24 -82 -12 -82 4 0 8 15 8 34 0 20 6 36 14 39 20
8 26 -2 26 -40 0 -18 5 -33 10 -33 6 0 10 15 10 33 0 46 -26 69 -56 49z"/>
<path d="M4992 128 c-28 -28 1 -97 35 -84 8 3 17 6 19 6 2 0 4 4 4 9 0 4 -11
6 -24 4 -28 -6 -41 19 -26 48 12 22 21 24 39 7 11 -11 13 -10 9 2 -6 19 -40
24 -56 8z"/>
<path d="M5113 134 c-7 -3 -13 -11 -13 -17 0 -8 4 -7 12 1 16 16 38 15 38 -2
0 -8 -10 -16 -22 -18 -15 -2 -24 -11 -26 -26 -2 -12 1 -22 6 -22 5 0 9 8 8 17
0 12 7 19 21 21 17 3 21 -1 17 -11 -3 -8 0 -18 6 -22 8 -5 10 6 8 37 -2 35 -7
43 -23 45 -11 1 -26 -1 -32 -3z"/>
<path d="M5234 132 c-24 -15 -26 -50 -5 -71 24 -24 34 -26 50 -8 8 11 5 13
-19 9 -23 -3 -30 0 -30 12 0 11 9 16 30 16 31 0 39 17 18 38 -14 14 -28 15
-44 4z m30 -8 c25 -9 19 -24 -9 -24 -24 0 -32 10 -18 23 8 8 8 8 27 1z"/>
<path d="M5400 134 c-11 -3 -15 -18 -14 -55 1 -45 14 -87 14 -45 0 10 6 16 13
13 23 -8 47 13 47 41 0 42 -19 57 -60 46z m43 -26 c14 -22 1 -48 -23 -48 -15
0 -20 7 -20 28 0 44 22 54 43 20z"/>
<path d="M5493 133 c-8 -3 -12 -21 -11 -46 1 -40 1 -40 5 -8 3 19 12 41 21 48
17 12 8 16 -15 6z"/>
<path d="M5541 126 c-16 -19 -10 -68 9 -74 12 -4 13 -2 3 9 -21 21 -15 29 22
29 38 0 40 2 25 31 -13 22 -43 25 -59 5z m47 -14 c2 -7 -7 -12 -22 -12 -27 0
-35 15 -13 23 17 7 30 3 35 -11z"/>
<path d="M5627 133 c-14 -14 -6 -34 18 -45 36 -16 31 -32 -7 -24 -30 5 -31 4
-15 -8 23 -17 57 -9 57 14 0 9 -12 22 -26 28 -26 12 -24 38 3 28 8 -3 11 -1 8
4 -7 11 -28 13 -38 3z"/>
<path d="M5703 133 c-22 -8 -14 -33 12 -43 26 -10 32 -24 16 -35 -5 -3 -12 -1
-16 5 -3 5 -11 10 -18 10 -6 0 -4 -8 6 -17 13 -14 21 -15 35 -7 25 16 21 37
-11 52 -20 10 -26 17 -18 25 7 7 15 6 27 -4 15 -12 17 -12 12 1 -5 16 -25 22
-45 13z"/>
<path d="M5822 128 c-19 -19 -15 -66 7 -78 24 -12 51 -3 51 18 0 13 -2 13 -13
-2 -13 -17 -14 -17 -30 -1 -21 20 -22 39 -2 55 12 10 18 10 32 -1 14 -12 16
-12 11 1 -6 19 -40 24 -56 8z"/>
<path d="M5900 120 c-12 -22 -4 -66 13 -73 26 -10 57 12 57 41 0 50 -49 72
-70 32z m50 -5 c17 -20 8 -50 -15 -50 -20 0 -31 25 -21 51 7 18 20 18 36 -1z"/>
<path d="M6003 133 c-8 -3 -12 -21 -11 -46 1 -41 1 -41 5 -7 3 19 9 39 14 45
14 14 29 -14 24 -42 -2 -13 1 -25 6 -28 5 -4 9 10 9 29 0 57 32 63 35 6 1 -16
4 -33 8 -36 9 -10 9 58 -1 72 -7 10 -66 15 -89 7z"/>
<path d="M4697 123 c-11 -10 -8 -73 3 -73 6 0 10 18 10 40 0 41 -2 45 -13 33z"/>
<path d="M5073 90 c0 -25 2 -35 4 -22 2 12 2 32 0 45 -2 12 -4 2 -4 -23z"/>
<path d="M5314 113 c4 -12 2 -31 -4 -43 -13 -25 -2 -27 16 -2 12 16 13 16 19
0 4 -10 11 -18 17 -18 5 0 2 10 -6 22 -12 16 -13 26 -4 42 10 18 9 19 -4 9
-11 -10 -17 -10 -27 0 -11 10 -12 8 -7 -10z"/>
<path d="M4601 64 c0 -11 3 -14 6 -6 3 7 2 16 -1 19 -3 4 -6 -2 -5 -13z"/>
<path d="M5580 60 c-8 -5 -12 -11 -9 -14 2 -3 11 -1 19 4 8 5 12 11 9 14 -2 3
-11 1 -19 -4z"/>
<path d="M1527 29 c7 -7 15 -10 18 -7 3 3 -2 9 -12 12 -14 6 -15 5 -6 -5z"/>
</g>
</svg>
